<mxfile host="app.diagrams.net" agent="Mozilla/5.0 (Macintosh; Intel Mac OS X 10.15; rv:128.0) Gecko/20100101 Firefox/128.0" version="24.7.5">
  <diagram name="Page-1" id="rmphEHnoWBvl_5dTa9J4">
    <mxGraphModel dx="954" dy="643" grid="1" gridSize="10" guides="1" tooltips="1" connect="1" arrows="1" fold="1" page="1" pageScale="1" pageWidth="850" pageHeight="1100" math="0" shadow="0">
      <root>
        <mxCell id="0" />
        <mxCell id="1" parent="0" />
        <mxCell id="2" value="Component&#xa;Â of open source" style="ellipse;aspect=fixed;strokeWidth=2;whiteSpace=wrap;fontStyle=1;fillColor=#ffe6cc;strokeColor=#d79b00;shadow=1;" parent="1" vertex="1">
          <mxGeometry x="380" y="249" width="131" height="131" as="geometry" />
        </mxCell>
        <mxCell id="3" value="Licensing" style="rounded=1;absoluteArcSize=1;arcSize=14;whiteSpace=wrap;strokeWidth=2;" parent="1" vertex="1">
          <mxGeometry x="594" y="320" width="88" height="38" as="geometry" />
        </mxCell>
        <mxCell id="4" value="GPL" style="rounded=1;absoluteArcSize=1;arcSize=14;whiteSpace=wrap;strokeWidth=2;" parent="1" vertex="1">
          <mxGeometry x="722" y="310" width="50" height="38" as="geometry" />
        </mxCell>
        <mxCell id="5" value="MIT" style="rounded=1;absoluteArcSize=1;arcSize=14;whiteSpace=wrap;strokeWidth=2;" parent="1" vertex="1">
          <mxGeometry x="675" y="260" width="47" height="38" as="geometry" />
        </mxCell>
        <mxCell id="6" value="Apache" style="rounded=1;absoluteArcSize=1;arcSize=14;whiteSpace=wrap;strokeWidth=2;" parent="1" vertex="1">
          <mxGeometry x="698" y="374" width="74" height="38" as="geometry" />
        </mxCell>
        <mxCell id="7" value="Community" style="rounded=1;absoluteArcSize=1;arcSize=14;whiteSpace=wrap;strokeWidth=2;" parent="1" vertex="1">
          <mxGeometry x="505" y="394" width="103" height="38" as="geometry" />
        </mxCell>
        <mxCell id="8" value="Contributors" style="rounded=1;absoluteArcSize=1;arcSize=14;whiteSpace=wrap;strokeWidth=2;" parent="1" vertex="1">
          <mxGeometry x="494" y="489" width="111" height="38" as="geometry" />
        </mxCell>
        <mxCell id="9" value="Users" style="rounded=1;absoluteArcSize=1;arcSize=14;whiteSpace=wrap;strokeWidth=2;" parent="1" vertex="1">
          <mxGeometry x="645" y="455" width="60" height="38" as="geometry" />
        </mxCell>
        <mxCell id="10" value="Maintainers" style="rounded=1;absoluteArcSize=1;arcSize=14;whiteSpace=wrap;strokeWidth=2;" parent="1" vertex="1">
          <mxGeometry x="353" y="438" width="105" height="38" as="geometry" />
        </mxCell>
        <mxCell id="11" value="Transparency" style="rounded=1;absoluteArcSize=1;arcSize=14;whiteSpace=wrap;strokeWidth=2;" parent="1" vertex="1">
          <mxGeometry x="231" y="374" width="116" height="38" as="geometry" />
        </mxCell>
        <mxCell id="12" value="Open communication" style="rounded=1;absoluteArcSize=1;arcSize=14;whiteSpace=wrap;strokeWidth=2;" parent="1" vertex="1">
          <mxGeometry x="152" y="461" width="174" height="38" as="geometry" />
        </mxCell>
        <mxCell id="13" value="Open governance" style="rounded=1;absoluteArcSize=1;arcSize=14;whiteSpace=wrap;strokeWidth=2;" parent="1" vertex="1">
          <mxGeometry x="28" y="403" width="146" height="38" as="geometry" />
        </mxCell>
        <mxCell id="14" value="Collaboration" style="rounded=1;absoluteArcSize=1;arcSize=14;whiteSpace=wrap;strokeWidth=2;" parent="1" vertex="1">
          <mxGeometry x="196" y="247" width="118" height="38" as="geometry" />
        </mxCell>
        <mxCell id="15" value="Version Control Systems" style="rounded=1;absoluteArcSize=1;arcSize=14;whiteSpace=wrap;strokeWidth=2;" parent="1" vertex="1">
          <mxGeometry x="25" y="204" width="114" height="38" as="geometry" />
        </mxCell>
        <mxCell id="16" value="Source Code" style="rounded=1;absoluteArcSize=1;arcSize=14;whiteSpace=wrap;strokeWidth=2;" parent="1" vertex="1">
          <mxGeometry x="139" y="146" width="131" height="38" as="geometry" />
        </mxCell>
        <mxCell id="17" value="Repository" style="rounded=1;absoluteArcSize=1;arcSize=14;whiteSpace=wrap;strokeWidth=2;" parent="1" vertex="1">
          <mxGeometry x="32" y="303" width="120" height="38" as="geometry" />
        </mxCell>
        <mxCell id="TN7xql7lLdcz_LLdnoFs-55" value="" style="edgeStyle=none;shape=connector;rounded=1;orthogonalLoop=1;jettySize=auto;html=1;strokeColor=default;align=center;verticalAlign=middle;fontFamily=Helvetica;fontSize=11;fontColor=default;labelBackgroundColor=default;endArrow=none;flowAnimation=1;" edge="1" parent="1" source="18" target="TN7xql7lLdcz_LLdnoFs-40">
          <mxGeometry relative="1" as="geometry" />
        </mxCell>
        <mxCell id="TN7xql7lLdcz_LLdnoFs-56" style="edgeStyle=none;shape=connector;rounded=1;orthogonalLoop=1;jettySize=auto;html=1;entryX=0.25;entryY=1;entryDx=0;entryDy=0;strokeColor=default;align=center;verticalAlign=middle;fontFamily=Helvetica;fontSize=11;fontColor=default;labelBackgroundColor=default;endArrow=none;flowAnimation=1;" edge="1" parent="1" source="18" target="TN7xql7lLdcz_LLdnoFs-47">
          <mxGeometry relative="1" as="geometry" />
        </mxCell>
        <mxCell id="TN7xql7lLdcz_LLdnoFs-59" style="edgeStyle=none;shape=connector;rounded=1;orthogonalLoop=1;jettySize=auto;html=1;entryX=0;entryY=0.5;entryDx=0;entryDy=0;strokeColor=default;align=center;verticalAlign=middle;fontFamily=Helvetica;fontSize=11;fontColor=default;labelBackgroundColor=default;endArrow=none;flowAnimation=1;" edge="1" parent="1" source="18" target="TN7xql7lLdcz_LLdnoFs-58">
          <mxGeometry relative="1" as="geometry" />
        </mxCell>
        <mxCell id="TN7xql7lLdcz_LLdnoFs-61" style="edgeStyle=none;shape=connector;rounded=1;orthogonalLoop=1;jettySize=auto;html=1;strokeColor=default;align=center;verticalAlign=middle;fontFamily=Helvetica;fontSize=11;fontColor=default;labelBackgroundColor=default;endArrow=none;flowAnimation=1;" edge="1" parent="1" source="18">
          <mxGeometry relative="1" as="geometry">
            <mxPoint x="690" y="130" as="targetPoint" />
          </mxGeometry>
        </mxCell>
        <mxCell id="18" value="Security" style="rounded=1;absoluteArcSize=1;arcSize=14;whiteSpace=wrap;strokeWidth=2;fontStyle=1;fillColor=#60a917;strokeColor=#2D7600;fontColor=#ffffff;" parent="1" vertex="1">
          <mxGeometry x="466" y="210" width="97" height="38" as="geometry" />
        </mxCell>
        <mxCell id="19" value="Continuous improvement" style="rounded=1;absoluteArcSize=1;arcSize=14;whiteSpace=wrap;strokeWidth=2;" parent="1" vertex="1">
          <mxGeometry x="290" y="155" width="116" height="40" as="geometry" />
        </mxCell>
        <mxCell id="20" value="Dependency Management" style="rounded=1;absoluteArcSize=1;arcSize=14;whiteSpace=wrap;strokeWidth=2;fillColor=#f0a30a;strokeColor=#BD7000;" parent="1" vertex="1">
          <mxGeometry x="596.5" y="207" width="83" height="44" as="geometry" />
        </mxCell>
        <mxCell id="21" style="endArrow=none;flowAnimation=1;" parent="1" source="2" target="3" edge="1">
          <mxGeometry relative="1" as="geometry" />
        </mxCell>
        <mxCell id="22" style="endArrow=none" parent="1" source="2" target="7" edge="1">
          <mxGeometry relative="1" as="geometry" />
        </mxCell>
        <mxCell id="23" style="endArrow=none" parent="1" source="2" target="11" edge="1">
          <mxGeometry relative="1" as="geometry" />
        </mxCell>
        <mxCell id="24" style="endArrow=none" parent="1" source="2" target="14" edge="1">
          <mxGeometry relative="1" as="geometry" />
        </mxCell>
        <mxCell id="25" style="endArrow=none;rounded=1;strokeColor=default;align=center;verticalAlign=middle;fontFamily=Helvetica;fontSize=11;fontColor=default;labelBackgroundColor=default;flowAnimation=1;" parent="1" source="2" target="18" edge="1">
          <mxGeometry relative="1" as="geometry" />
        </mxCell>
        <mxCell id="26" style="endArrow=none" parent="1" source="3" target="4" edge="1">
          <mxGeometry relative="1" as="geometry" />
        </mxCell>
        <mxCell id="27" style="endArrow=none" parent="1" source="3" target="5" edge="1">
          <mxGeometry relative="1" as="geometry" />
        </mxCell>
        <mxCell id="28" style="endArrow=none" parent="1" source="3" edge="1">
          <mxGeometry relative="1" as="geometry">
            <mxPoint x="723.078125" y="384" as="targetPoint" />
            <Array as="points">
              <mxPoint x="723" y="370" />
            </Array>
          </mxGeometry>
        </mxCell>
        <mxCell id="29" style="endArrow=none" parent="1" source="7" target="8" edge="1">
          <mxGeometry relative="1" as="geometry" />
        </mxCell>
        <mxCell id="30" style="endArrow=none" parent="1" source="7" target="9" edge="1">
          <mxGeometry relative="1" as="geometry" />
        </mxCell>
        <mxCell id="31" style="endArrow=none" parent="1" source="7" target="10" edge="1">
          <mxGeometry relative="1" as="geometry" />
        </mxCell>
        <mxCell id="32" style="endArrow=none" parent="1" source="11" target="12" edge="1">
          <mxGeometry relative="1" as="geometry" />
        </mxCell>
        <mxCell id="33" style="endArrow=none" parent="1" source="11" edge="1">
          <mxGeometry relative="1" as="geometry">
            <mxPoint x="174" y="411.9627659574468" as="targetPoint" />
          </mxGeometry>
        </mxCell>
        <mxCell id="34" style="endArrow=none" parent="1" source="14" edge="1">
          <mxGeometry relative="1" as="geometry">
            <mxPoint x="139" y="238.50867052023125" as="targetPoint" />
          </mxGeometry>
        </mxCell>
        <mxCell id="35" style="endArrow=none" parent="1" source="14" target="16" edge="1">
          <mxGeometry relative="1" as="geometry" />
        </mxCell>
        <mxCell id="36" style="endArrow=none" parent="1" source="14" target="17" edge="1">
          <mxGeometry relative="1" as="geometry" />
        </mxCell>
        <mxCell id="37" style="endArrow=none;exitX=1;exitY=0.5;exitDx=0;exitDy=0;" parent="1" source="14" target="19" edge="1">
          <mxGeometry relative="1" as="geometry" />
        </mxCell>
        <mxCell id="38" style="endArrow=none;rounded=1;strokeColor=default;align=center;verticalAlign=middle;fontFamily=Helvetica;fontSize=11;fontColor=default;labelBackgroundColor=default;flowAnimation=1;" parent="1" source="18" target="20" edge="1">
          <mxGeometry relative="1" as="geometry" />
        </mxCell>
        <mxCell id="TN7xql7lLdcz_LLdnoFs-40" value="SecurityÂ &#xa;Audits" style="rounded=1;absoluteArcSize=1;arcSize=14;whiteSpace=wrap;strokeWidth=2;fillColor=#f0a30a;fontColor=#000000;strokeColor=#BD7000;" vertex="1" parent="1">
          <mxGeometry x="430" y="111" width="83" height="44" as="geometry" />
        </mxCell>
        <mxCell id="TN7xql7lLdcz_LLdnoFs-47" value="Code Review" style="rounded=1;absoluteArcSize=1;arcSize=14;whiteSpace=wrap;strokeWidth=2;fillColor=#f0a30a;fontColor=#000000;strokeColor=#BD7000;" vertex="1" parent="1">
          <mxGeometry x="540" y="111" width="83" height="44" as="geometry" />
        </mxCell>
        <mxCell id="TN7xql7lLdcz_LLdnoFs-57" style="edgeStyle=none;shape=connector;rounded=1;orthogonalLoop=1;jettySize=auto;html=1;exitX=1;exitY=0.5;exitDx=0;exitDy=0;entryX=1;entryY=0.75;entryDx=0;entryDy=0;strokeColor=default;align=center;verticalAlign=middle;fontFamily=Helvetica;fontSize=11;fontColor=default;labelBackgroundColor=default;endArrow=none;flowAnimation=1;" edge="1" parent="1" source="TN7xql7lLdcz_LLdnoFs-47" target="TN7xql7lLdcz_LLdnoFs-47">
          <mxGeometry relative="1" as="geometry" />
        </mxCell>
        <mxCell id="TN7xql7lLdcz_LLdnoFs-58" value="Vulnerability Disclosure Programs" style="rounded=1;absoluteArcSize=1;arcSize=14;whiteSpace=wrap;strokeWidth=2;fillColor=#f0a30a;fontColor=#000000;strokeColor=#BD7000;" vertex="1" parent="1">
          <mxGeometry x="651" y="155" width="121" height="37" as="geometry" />
        </mxCell>
        <mxCell id="TN7xql7lLdcz_LLdnoFs-60" value="Automated Security Testing" style="rounded=1;absoluteArcSize=1;arcSize=14;whiteSpace=wrap;strokeWidth=2;fillColor=#f0a30a;fontColor=#000000;strokeColor=#BD7000;" vertex="1" parent="1">
          <mxGeometry x="645" y="90" width="121" height="37" as="geometry" />
        </mxCell>
      </root>
    </mxGraphModel>
  </diagram>
</mxfile>
